<svg t="1733843766447" class="icon" viewBox="0 0 1024 1024" version="1.1"
    xmlns="http://www.w3.org/2000/svg" p-id="4366" xmlns:xlink="http://www.w3.org/1999/xlink"
    width="200" height="200">
    <path d="M512 512m-501.76 0a501.76 501.76 0 1 0 1003.52 0 501.76 501.76 0 1 0-1003.52 0Z"
        fill="#E3E6EE" p-id="4367"></path>
    <path
        d="M540.33408 639.75424a11.49952 11.49952 0 1 1 0 22.9888H322.87744a11.49952 11.49952 0 0 1 0-22.9888h217.45664z m188.08832-69.7344a11.49952 11.49952 0 0 1 1.1776 22.9376l-1.1776 0.06144h-405.0944a11.49952 11.49952 0 1 1 0-22.9888h405.0944z m0-69.71392a11.49952 11.49952 0 0 1 1.1776 22.92736l-1.1776 0.0512h-405.0944a11.49952 11.49952 0 0 1 0-22.97856h405.0944z m1.41312-102.95296a11.49952 11.49952 0 0 1 0 22.9888h-141.2096a11.49952 11.49952 0 0 1 0-22.9888h141.2096z m0-77.0048c2.56 0 4.864 0.84992 6.76864 2.2528 3.6864 2.64192 5.44768 7.22944 4.47488 11.65312v0.0512c-1.14688 5.15072-5.632 8.86784-10.89536 9.03168H588.62592a11.49952 11.49952 0 1 1 0-22.9888h141.19936z m0-76.9536a11.49952 11.49952 0 1 1 0 22.9888h-141.2096a11.49952 11.49952 0 0 1 0-22.9888h141.2096z m-409.47712-29.76768c-6.3488 0-11.49952 5.14048-11.49952 11.49952v213.43232c0 6.37952 5.13024 11.49952 11.49952 11.49952h189.44c6.35904 0 11.50976-5.15072 11.50976-11.49952V225.1264c0-6.32832-5.18144-11.49952-11.49952-11.49952h-189.44z m44.77952 215.79776c0-0.79872 0-1.54624 0.0512-2.304 0.50176-25.6 9.43104-48.5376 22.53824-62.40256a55.15264 55.15264 0 0 0 28.66176 7.9872 54.84544 54.84544 0 0 0 28.6208-7.9872c13.19936 13.85472 22.07744 36.79232 22.5792 62.40256 0.0512 0.75776 0.0512 1.50528 0.0512 2.304h-102.5024z m51.2512-144.77312a32.58368 32.58368 0 0 1 32.53248 32.53248 32.68608 32.68608 0 0 1-13.50656 26.35776c-5.5296 4.02432-12.1856 6.18496-19.02592 6.17472a31.8976 31.8976 0 0 1-18.97472-6.17472 32.1024 32.1024 0 0 1-8.32512-8.74496 32.13312 32.13312 0 0 1-5.2224-17.6128 32.58368 32.58368 0 0 1 32.52224-32.53248zM521.00096 709.4272a11.49952 11.49952 0 0 1 0 22.97856H321.77152a11.49952 11.49952 0 0 1 0-22.97856h199.22944z m-22.69184-472.81152v190.50496h-7.7312c-0.39936-25.5488-7.5776-49.60256-20.3776-67.97312a89.10848 89.10848 0 0 0-8.33536-10.24c6.5536-9.27744 10.05568-20.35712 10.0352-31.72352a55.57248 55.57248 0 0 0-55.5008-55.51104 55.52128 55.52128 0 0 0-55.48032 55.5008c0 11.81696 3.66592 22.75328 9.99424 31.744-2.9696 3.10272-5.7344 6.51264-8.33536 10.24-12.7488 18.36032-19.97824 42.41408-20.4288 67.96288h-10.2912V236.61568h166.4512z"
        fill="#3E4258" p-id="4368"></path>
    <path
        d="M914.30912 750.68416L803.06176 459.20256V147.16928c0-7.43424-6.02112-13.40416-13.40416-13.40416H678.92224L654.1824 68.9152a13.35296 13.35296 0 0 0-7.08608-7.43424 13.4144 13.4144 0 0 0-10.24-0.3072l-190.18752 72.6016H243.11808c-7.40352 0-13.4144 5.9904-13.4144 13.39392v69.376L126.28992 256a13.39392 13.39392 0 0 0-7.74144 17.3056l111.18592 291.50208v312.02304c0 7.43424 6.02112 13.40416 13.40416 13.40416h110.77632l24.70912 64.84992a13.312 13.312 0 0 0 12.55424 8.58112c1.59744 0 3.19488-0.3072 4.75136-0.83968l190.208-72.6016h203.54048c7.40352 0 13.4144-5.9904 13.4144-13.39392v-69.376L906.52672 768a13.45536 13.45536 0 0 0 7.7824-17.3056l-0.01024-0.01024z m-684.5952-261.0176l-81.41824-213.38112 81.408-31.06816V489.6768zM633.89696 91.00288l16.31232 42.77248H521.86112l112.04608-42.77248z m-235.008 841.99424l-16.32256-42.76224h128.34816l-112.03584 42.78272v-0.02048z m377.37472-69.57056H256.512V160.57344h519.76192v702.85312h-0.01024z m26.79808-84.67456V534.39488l81.37728 213.32992-81.37728 31.0272z"
        fill="#3E4258" p-id="4369"></path>
    <path
        d="M510.91456 890.23488l-112.03584 42.77248-16.31232-42.77248h128.34816zM884.43904 747.7248l-81.37728 31.0272V534.38464l81.37728 213.32992zM650.20928 133.76512H521.86112l112.04608-42.76224 16.30208 42.76224zM229.71392 245.21728V489.6768l-81.41824-213.4016 81.408-31.05792zM256.512 160.57344v702.85312h519.76192V160.57344H256.512z m332.10368 82.82112h141.2096a11.49952 11.49952 0 0 1 0 22.9888h-141.2096a11.49952 11.49952 0 1 1 0-22.9888z m0 76.9536h141.2096c2.56 0 4.87424 0.84992 6.77888 2.2528 3.6864 2.64192 5.44768 7.22944 4.47488 11.65312v0.0512c-1.14688 5.15072-5.632 8.86784-10.89536 9.03168H588.62592a11.49952 11.49952 0 1 1 0-22.9888z m0 77.0048h141.2096a11.49952 11.49952 0 0 1 0 22.9888h-141.2096a11.49952 11.49952 0 0 1 0-22.9888z m139.81696 125.93152h-405.0944a11.49952 11.49952 0 0 1 0-22.97856h405.08416a11.49952 11.49952 0 0 1 0 22.9888z m11.49952 58.24512c0 6.36928-5.12 11.48928-11.49952 11.48928h-405.0944a11.49952 11.49952 0 1 1 0-22.9888h405.08416c6.3488 0 11.49952 5.14048 11.49952 11.49952zM308.86912 225.1264c0-6.3488 5.16096-11.49952 11.49952-11.49952h189.44c6.32832 0 11.50976 5.1712 11.50976 11.49952v213.43232c0 6.3488-5.15072 11.49952-11.49952 11.49952H320.3584a11.4688 11.4688 0 0 1-11.49952-11.49952V225.1264h0.01024z m212.14208 507.2896H321.77152a11.49952 11.49952 0 0 1 0-22.9888h199.22944a11.49952 11.49952 0 0 1 0 22.97856h0.01024z m19.32288-69.67296H322.87744a11.49952 11.49952 0 1 1 0-22.9888h217.45664a11.49952 11.49952 0 0 1 0 22.9888z m114.688 159.46752c-58.61376 0-106.30144-47.67744-106.30144-106.31168S596.40832 609.5872 655.03232 609.5872 761.344 657.26464 761.344 715.89888s-47.69792 106.31168-106.31168 106.31168h-0.01024z"
        fill="#FFFFFF" p-id="4370"></path>
    <path
        d="M498.31936 236.62592v190.49472h-7.7312c-0.39936-25.5488-7.5776-49.60256-20.3776-67.97312a89.10848 89.10848 0 0 0-8.33536-10.24c6.5536-9.27744 10.05568-20.35712 10.0352-31.72352a55.57248 55.57248 0 0 0-55.5008-55.51104 55.52128 55.52128 0 0 0-55.48032 55.5008c0 11.81696 3.66592 22.75328 9.984 31.744-2.95936 3.10272-5.71392 6.51264-8.32512 10.24-12.7488 18.36032-19.97824 42.41408-20.4288 67.96288h-10.2912V236.61568h166.4512v0.01024z"
        fill="#1890FF" p-id="4371"></path>
    <path
        d="M467.65056 429.42464h-102.5024c0-0.79872 0-1.54624 0.04096-2.304 0.50176-25.6 9.43104-48.5376 22.53824-62.40256a55.15264 55.15264 0 0 0 28.66176 7.9872 54.84544 54.84544 0 0 0 28.6208-7.9872c13.19936 13.85472 22.07744 36.79232 22.5792 62.40256 0.0512 0.75776 0.0512 1.50528 0.0512 2.304h0.01024z m-18.71872-112.2304a32.68608 32.68608 0 0 1-13.50656 26.34752c-5.5296 4.02432-12.1856 6.18496-19.02592 6.17472a31.8976 31.8976 0 0 1-18.97472-6.17472 32.1024 32.1024 0 0 1-8.33536-8.74496 32.13312 32.13312 0 0 1-5.2224-17.6128 32.58368 32.58368 0 0 1 32.53248-32.53248 32.58368 32.58368 0 0 1 32.53248 32.53248z"
        fill="#EBEFF5" p-id="4372"></path>
    <path
        d="M655.03232 632.576c-45.93664 0-83.33312 37.39648-83.33312 83.32288 0 45.9776 37.39648 83.37408 83.33312 83.37408 45.9776 0 83.32288-37.39648 83.32288-83.37408 0-45.9264-37.34528-83.32288-83.32288-83.32288z"
        fill="#1890FF" fill-opacity=".5" p-id="4373"></path>
    <path
        d="M655.03232 609.5872c58.624 0 106.32192 47.68768 106.32192 106.31168 0 58.63424-47.69792 106.31168-106.31168 106.31168-58.63424 0-106.32192-47.67744-106.32192-106.31168S596.40832 609.5872 655.03232 609.5872z m0 22.9888c-45.93664 0-83.33312 37.39648-83.33312 83.32288 0 45.9776 37.39648 83.37408 83.33312 83.37408 45.9776 0 83.32288-37.39648 83.32288-83.37408 0-45.9264-37.34528-83.32288-83.32288-83.32288z m57.09824 47.22688a11.73504 11.73504 0 0 1 0 16.36352l-62.27968 63.44704a11.264 11.264 0 0 1-16.06656 0l-36.17792-36.8128a11.73504 11.73504 0 0 1 0-16.384 11.264 11.264 0 0 1 16.06656 0l28.16 28.65152 54.23104-55.25504a11.264 11.264 0 0 1 16.0768 0l-0.01024-0.01024z"
        fill="#3E4258" p-id="4374"></path>
</svg>