<svg t="1733844289140" class="icon" viewBox="0 0 1028 1024" version="1.1"
    xmlns="http://www.w3.org/2000/svg" p-id="1377" xmlns:xlink="http://www.w3.org/1999/xlink"
    width="200.78125" height="200">
    <path d="M478.82752 457.34912h217.37472v63.93344H478.82752z" fill="#69A1B2" p-id="1378"></path>
    <path d="M478.82752 457.34912h217.37472v63.93344H478.82752z" fill="#69A1B2" p-id="1379"></path>
    <path
        d="M843.24352 265.53856V35.3792H5.70368v882.29376c0 51.1488 38.35904 76.72832 83.10784 76.72832h850.33472c51.14368 0 89.50272-25.57952 89.50272-76.72832V265.53856h-185.40544zM97.62304 229.6064a25.6 25.6 0 0 1 25.6-25.6h279.04a25.6 25.6 0 0 1 25.6 25.6v281.41056a25.6 25.6 0 0 1-25.6 25.6h-279.04a25.6 25.6 0 0 1-25.6-25.6V229.6064z m183.28576 617.73312H97.62304v-39.07072h183.28576v39.07072z m205.75232 0H303.37024v-39.07072h183.29088v39.07072z m205.73696 0H509.11744v-39.07072h183.28576v39.07072z m-37.51424-80.128H132.5824c-20.72064 0-37.51424-17.48992-37.51424-39.07072s16.7936-39.07072 37.51424-39.07072h522.30656c20.72064 0 37.51424 17.48992 37.51424 39.07072s-16.79872 39.07072-37.51936 39.07072z m37.51424-304.87552H478.82752V399.23712h213.57568V462.336z m0-109.22496H478.82752V290.00704h213.57568v63.104z m291.49696 564.5568c0 25.56928-19.1744 38.35904-44.74368 38.35904h-44.76416c-25.56416 0-44.74368-12.78976-44.74368-38.35904V303.90272h134.25664v613.76512z"
        fill="#69A1B2" p-id="1380"></path>
    <path
        d="M341.05856 410.368c-3.80928-3.80928-10.33728-3.80928-14.14144 0-3.80928 3.80416-3.80928 10.33728 0 14.14144 17.67936 17.67936 27.74016 42.15808 27.74016 67.18464 0 5.44256 4.62336 9.79456 10.06592 9.79456s9.79456-4.35712 10.0608-9.79456c-0.26624-30.18752-12.50816-59.83744-33.72544-81.32608z m-26.112-146.87744C300.53376 249.06752 280.6784 240.64 260.54656 240.64h-0.27136c-42.70592 0-77.52192 35.09248-77.52192 78.06464 0 14.96064 4.08064 29.37344 11.96544 41.88672 5.98016 9.51808 14.14144 17.95584 23.66464 23.94112-14.68928 5.7088-27.74016 14.4128-39.168 25.84064-20.9408 21.48352-33.18272 51.13344-33.18272 81.60256 0 5.44256 4.62336 9.78944 10.0608 9.78944s9.79456-4.352 10.06592-9.78944c0-51.68128 40.25344-93.568 91.392-94.92992h2.99008c42.70592 0 77.52192-35.09248 77.52192-78.06464a81.26464 81.26464 0 0 0-23.1168-55.49056z m2.71872 55.21408c0 31.27808-25.2928 57.39008-56.30464 57.9328h-4.08064c-30.73536-1.36192-54.67136-26.9312-54.67136-57.9328 0.27136-31.82592 26.112-57.9328 57.66656-57.9328 31.82592 0 57.39008 26.10688 57.39008 57.9328z"
        fill="#69A1B2" p-id="1381"></path>
</svg>