<svg t="1733913331657" class="icon" viewBox="0 0 1198 1024" version="1.1"
    xmlns="http://www.w3.org/2000/svg" p-id="1947" xmlns:xlink="http://www.w3.org/1999/xlink"
    width="233.984375" height="200">
    <path
        d="M976.325 780.445h-77.741v0.04a10.948 10.948 0 0 1-11.112-10.742V233.88c0-5.945 4.962-10.742 11.112-10.783h77.741c6.11 0.04 11.07 4.879 11.07 10.783v535.864a10.989 10.989 0 0 1-11.07 10.702z m133.259 192.917a11.07 11.07 0 0 1-11.112 10.702H54.626a11.03 11.03 0 0 1-11.112-10.702l0.041-932.36h82.006V902.06s984.023-0.287 984.064 0l-0.041 71.303zM43.555 41.002c-6.109 0.042 0.041-5.904 0 0z m82.006 0c-0.041-5.904 6.11 0.042 0 0z m639.764 739.443h-77.74v0.04a10.989 10.989 0 0 1-11.112-10.742V445.576c0-5.904 4.96-10.702 11.111-10.784h77.741c6.15 0.082 11.071 4.839 11.112 10.743v324.208a10.989 10.989 0 0 1-11.112 10.702z m-211 0h-77.74v0.04a10.948 10.948 0 0 1-11.071-10.742V341.06c0-5.904 4.961-10.702 11.07-10.784h77.742c6.15 0.041 11.152 4.839 11.152 10.784v428.683a10.989 10.989 0 0 1-11.152 10.702z m-210.958 0h-77.741v0.04a10.948 10.948 0 0 1-11.112-10.742V576.826c0-5.905 4.961-10.702 11.112-10.743h77.74c6.11 0.04 11.072 4.838 11.072 10.743v192.917a10.989 10.989 0 0 1-11.071 10.702z"
        p-id="1948"></path>
    <path
        d="M976.325 780.445h-77.741v0.04a10.948 10.948 0 0 1-11.112-10.742V233.88c0-5.945 4.962-10.742 11.112-10.783h77.741c6.11 0.04 11.07 4.879 11.07 10.783v535.864a10.989 10.989 0 0 1-11.07 10.702z m133.259 192.917a11.07 11.07 0 0 1-11.112 10.702H54.626a11.03 11.03 0 0 1-11.112-10.702l0.041-932.36h82.006V902.06s984.023-0.287 984.064 0l-0.041 71.303zM43.555 41.002c-6.109 0.042 0.041-5.904 0 0z m82.006 0c-0.041-5.904 6.11 0.042 0 0z m639.764 739.443h-77.74v0.04a10.989 10.989 0 0 1-11.112-10.742V445.576c0-5.904 4.96-10.702 11.111-10.784h77.741c6.15 0.082 11.071 4.839 11.112 10.743v324.208a10.989 10.989 0 0 1-11.112 10.702z m-211 0h-77.74v0.04a10.948 10.948 0 0 1-11.071-10.742V341.06c0-5.904 4.961-10.702 11.07-10.784h77.742c6.15 0.041 11.152 4.839 11.152 10.784v428.683a10.989 10.989 0 0 1-11.152 10.702z m-210.958 0h-77.741v0.04a10.948 10.948 0 0 1-11.112-10.742V576.826c0-5.905 4.961-10.702 11.112-10.743h77.74c6.11 0.04 11.072 4.838 11.072 10.743v192.917a10.989 10.989 0 0 1-11.071 10.702z"
        p-id="1949"></path>
</svg>