<svg t="1733913321981" class="icon" viewBox="0 0 1024 1024" version="1.1"
    xmlns="http://www.w3.org/2000/svg" p-id="1655" xmlns:xlink="http://www.w3.org/1999/xlink"
    width="200" height="200">
    <path
        d="M94.4 735.8l-13.8-30.8c-4-9-7.8-18-11.2-27.2-3.4-9.2-6.6-18.4-9.4-27.8-2.8-9.4-5.4-18.8-7.8-28.4-2.2-9.6-4.2-19.2-6-28.8s-3-19.4-4.2-29.2c-1-9.8-1.8-19.6-2.4-29.4-0.4-9.8-0.6-19.6-0.4-29.4 0.2-9.8 0.6-19.6 1.4-29.4 0.8-9.8 1.8-19.6 3.2-29.2 1.4-9.8 3-19.4 5-29 2-9.6 4.2-19.2 6.8-28.6 2.6-9.4 5.4-18.8 8.6-28.2 3.2-9.2 6.6-18.4 10.2-27.6 3.8-9 7.8-18 12-26.8s8.8-17.6 13.6-26c4.8-8.6 9.8-17 15.2-25.2 5.4-8.2 11-16.2 16.8-24.2 5.8-7.8 12-15.6 18.2-23 6.4-7.6 12.8-14.8 19.6-21.8 6.8-7 13.8-14 21-20.6 7.2-6.6 14.6-13 22.2-19.2 7.6-6.2 15.4-12.2 23.4-17.8 8-5.8 16.2-11.2 24.4-16.4 8.4-5.2 16.8-10.2 25.4-14.8s17.4-9 26.2-13.2c8.8-4.2 18-8 27-11.6 9.2-3.6 18.4-6.8 27.8-9.8 9.4-3 18.8-5.8 28.2-8.2 9.6-2.4 19-4.6 28.8-6.4s19.4-3.4 29-4.6c9.8-1.2 19.4-2.2 29.2-2.8 9.8-0.6 19.6-1 29.4-1h33.8v494.4l-451.2 202z"
        p-id="1656"></path>
    <path
        d="M613.4 112.2v465.4L171.6 775.2c4.8 8 10 15.8 15.4 23.4 5.4 7.6 11 15 16.8 22.4 5.8 7.2 12 14.4 18.2 21.2 6.4 6.8 12.8 13.6 19.6 20s13.6 12.8 20.8 18.8c7.2 6 14.4 11.8 22 17.4 7.6 5.6 15.2 10.8 23 16 7.8 5 15.8 9.8 24 14.4s16.4 8.8 24.8 12.8c8.4 4 17 7.8 25.6 11.2 8.6 3.4 17.4 6.6 26.2 9.6s17.8 5.6 26.8 8c9 2.4 18.2 4.4 27.2 6.2 9.2 1.8 18.4 3.2 27.6 4.4 9.2 1.2 18.6 2 27.8 2.6 9.4 0.6 18.6 0.8 28 1 242 0 438.8-196.8 438.8-438.8 0.4-219-160.8-401-370.8-433.6z"
        p-id="1657"></path>
</svg>