<svg t="1733913325146" class="icon" viewBox="0 0 1024 1024" version="1.1"
    xmlns="http://www.w3.org/2000/svg" p-id="1802" xmlns:xlink="http://www.w3.org/1999/xlink"
    width="200" height="200">
    <path d="M0 0h1024v1024H0V0z" fill="#202425" p-id="1803"></path>
    <path
        d="M68.266667 273.066667a34.133333 34.133333 0 0 0-34.133334 34.133333v580.266667a34.133333 34.133333 0 0 0 34.133334 34.133333h341.333333a34.133333 34.133333 0 0 0 34.133333 34.133333h136.533334a34.133333 34.133333 0 0 0 34.133333-34.133333h341.333333a34.133333 34.133333 0 0 0 34.133334-34.133333V307.2a34.133333 34.133333 0 0 0-34.133334-34.133333H68.266667z"
        fill="#11AA66" p-id="1804"></path>
    <path
        d="M136.533333 68.266667a34.133333 34.133333 0 0 0-34.133333 34.133333v716.8a34.133333 34.133333 0 0 0 34.133333 34.133333h750.933334a34.133333 34.133333 0 0 0 34.133333-34.133333V102.4a34.133333 34.133333 0 0 0-34.133333-34.133333h-170.666667a204.8 204.8 0 0 0-204.8 204.8 204.8 204.8 0 0 0-204.8-204.8H136.533333z"
        fill="#FFAA44" p-id="1805"></path>
    <path
        d="M512 307.2a34.133333 34.133333 0 0 1 34.133333 34.133333v409.6a34.133333 34.133333 0 1 1-68.266666 0V341.333333a34.133333 34.133333 0 0 1 34.133333-34.133333z"
        fill="#FFFFFF" p-id="1806"></path>
</svg>