<svg t="1733844414116" class="icon" viewBox="0 0 1024 1024" version="1.1"
    xmlns="http://www.w3.org/2000/svg" p-id="1961" xmlns:xlink="http://www.w3.org/1999/xlink"
    width="200" height="200">
    <path
        d="M736.1 63.8H287.9c-123.8 0-224.1 100.3-224.1 224.1v448.2c0 123.8 100.3 224.1 224.1 224.1h448.2c94.8 0 175.8-58.9 208.6-142.1 10-25.4 15.6-53.1 15.6-82V512 288.2v-0.3c-0.1-123.8-100.4-224.1-224.2-224.1z"
        fill="#669DFF" p-id="1962"></path>
    <path d="M960.2 507.9V287l-224.4-55.1L718.2 792l227.1 26.9c9.6-26.6 14.9-55.2 14.9-84.8V507.9z"
        fill="#423709" p-id="1963"></path>
    <path
        d="M732.8 792.1H291.2c-19.3 0-35-15.7-35-35V266.9c0-19.3 15.7-35 35-35h441.7c19.3 0 35 15.7 35 35v490.2c-0.1 19.4-15.7 35-35.1 35z"
        fill="#FEDA14" p-id="1964"></path>
    <path
        d="M501.2 387.3v7.4c0 7.3-5.9 13.2-13.3 13.2h-7.5c-7.3 0-13.2-5.9-13.3-13.2 0-4.2-3.4-7.7-7.7-7.7-4.2 0-7.7 3.4-7.7 7.7 0 15.8 12.8 28.6 28.6 28.6h7.5c7.9 0 15.5-3.3 20.9-9.2 5.4 5.8 13 9.2 20.9 9.2h7.5c15.8 0 28.6-12.8 28.6-28.6 0-2-0.8-4-2.2-5.4s-3.4-2.2-5.4-2.2c-2 0-4 0.8-5.4 2.2-1.4 1.4-2.2 3.4-2.2 5.4 0 7.3-5.9 13.2-13.3 13.2h-7.5c-7.3 0-13.2-5.9-13.3-13.2v-7.4M384.9 286.3c-16.6 0-31.3 8.3-40.1 21-0.5 0.7-1 1.5-1.5 2.3-4.8 7.7-7.3 16.5-7.3 25.6 0 27 21.9 48.9 48.9 48.9s48.9-21.9 48.9-48.9-21.9-48.9-48.9-48.9z"
        fill="#1B3745" p-id="1965"></path>
    <path d="M355.3 321.8c0 5 4.1 9.1 9.1 9.1s9.1-4.1 9.1-9.1-4.1-9.1-9.1-9.1-9.1 4.1-9.1 9.1z"
        fill="#FFFFFF" p-id="1966"></path>
    <path
        d="M632.8 286.3c-16.6 0-31.3 8.3-40.1 21-0.5 0.7-1 1.5-1.5 2.3-4.8 7.7-7.3 16.5-7.3 25.5 0 27 21.9 48.9 48.9 48.9s48.9-21.9 48.9-48.9c-0.1-26.9-22-48.8-48.9-48.8z"
        fill="#1B3745" p-id="1967"></path>
    <path d="M603.2 321.8c0 5 4.1 9.1 9.1 9.1s9.1-4.1 9.1-9.1-4.1-9.1-9.1-9.1-9.1 4.1-9.1 9.1z"
        fill="#FFFFFF" p-id="1968"></path>
    <path d="M333.8 524m-19.4 0a19.4 19.4 0 1 0 38.8 0 19.4 19.4 0 1 0-38.8 0Z" fill="#DB4D29"
        p-id="1969"></path>
    <path d="M372.8 520.7h336.8v6.5H372.8z" fill="#DB4D29" p-id="1970"></path>
    <path d="M333.8 614.6m-19.4 0a19.4 19.4 0 1 0 38.8 0 19.4 19.4 0 1 0-38.8 0Z" fill="#DB4D29"
        p-id="1971"></path>
    <path d="M372.8 611.4h336.8v6.5H372.8z" fill="#DB4D29" p-id="1972"></path>
    <path d="M333.8 718.3m-19.4 0a19.4 19.4 0 1 0 38.8 0 19.4 19.4 0 1 0-38.8 0Z" fill="#DB4D29"
        p-id="1973"></path>
    <path d="M372.8 715h336.8v6.5H372.8z" fill="#DB4D29" p-id="1974"></path>
</svg>