<svg t="1733921685187" class="icon" viewBox="0 0 1024 1024" version="1.1"
    xmlns="http://www.w3.org/2000/svg" p-id="1485" xmlns:xlink="http://www.w3.org/1999/xlink"
    width="200" height="200">
    <path
        d="M710.4 294.4h-35.2c-3.2 0-6.4-3.2-6.4-6.4l-3.2-6.4c-3.2-9.6-6.4-19.2-12.8-28.8l-3.2-6.4v-9.6l28.8-28.8c6.4-6.4 9.6-16 9.6-25.6 0-9.6-3.2-19.2-9.6-25.6L624 102.4c-6.4-6.4-16-9.6-25.6-9.6-9.6 0-19.2 3.2-25.6 9.6L544 128c-3.2 3.2-6.4 3.2-9.6 0l-6.4-3.2c-9.6-3.2-19.2-9.6-28.8-12.8l-6.4-3.2c-3.2 0-6.4-3.2-6.4-6.4v-32c0-25.6-19.2-44.8-44.8-44.8h-64c-25.6 0-44.8 19.2-44.8 44.8v35.2c0 3.2-3.2 6.4-6.4 6.4H320c-9.6 6.4-19.2 9.6-28.8 12.8l-6.4 3.2h-9.6l-28.8-28.8c-6.4-6.4-16-12.8-25.6-12.8-9.6 0-19.2 3.2-25.6 9.6l-57.6 57.6c-6.4 6.4-9.6 16-9.6 25.6 0 9.6 3.2 19.2 9.6 25.6l28.8 28.8c3.2 3.2 3.2 6.4 0 9.6v9.6c-6.4 6.4-9.6 19.2-12.8 28.8l-3.2 6.4c0 3.2-3.2 6.4-6.4 6.4h-35.2c-22.4 0-44.8 19.2-44.8 44.8v64c0 25.6 19.2 44.8 44.8 44.8H144c3.2 0 6.4 3.2 6.4 6.4l3.2 6.4c3.2 9.6 6.4 19.2 12.8 28.8l3.2 6.4v9.6l-28.8 28.8c-9.6 6.4-12.8 16-12.8 25.6 0 9.6 3.2 19.2 9.6 25.6l57.6 54.4c6.4 6.4 16 9.6 25.6 9.6 9.6 0 19.2-3.2 25.6-9.6l28.8-28.8c3.2-3.2 6.4-3.2 9.6 0l6.4 3.2c9.6 3.2 19.2 9.6 28.8 12.8l6.4 3.2c3.2 0 6.4 3.2 6.4 6.4V672c0 25.6 19.2 44.8 44.8 44.8H448c19.2 0 35.2-16 35.2-35.2V640c0-3.2 3.2-6.4 6.4-6.4l6.4-3.2c9.6-3.2 19.2-6.4 28.8-12.8l6.4-3.2h9.6l28.8 28.8c6.4 6.4 16 9.6 25.6 9.6 9.6 0 19.2-3.2 25.6-9.6l54.4-54.4c6.4-6.4 9.6-16 9.6-25.6 0-9.6-3.2-19.2-9.6-25.6l-28.8-28.8c-3.2-3.2-3.2-6.4 0-9.6l3.2-6.4c3.2-9.6 9.6-19.2 12.8-28.8l3.2-6.4c0-3.2 3.2-6.4 6.4-6.4h35.2c25.6 0 44.8-19.2 44.8-44.8v-64c3.2-28.8-19.2-48-41.6-48zM409.6 515.2c-80 0-144-64-144-144s64-144 144-144 144 64 144 144-64 144-144 144zM172.8 809.6h124.8V1024H172.8zM342.4 848h124.8v176H342.4zM512 761.6h124.8V1024H512z m169.6-48h124.8V1024H681.6z m169.6-291.2H976v243.2H851.2z"
        fill="#21DB30" p-id="1486"></path>
    <path
        d="M572.8 1001.6H390.4V774.4H252.8v76.8h-38.4V736h214.4v227.2h105.6V832h176V524.8H864v38.4H748.8v307.2h-176z"
        fill="#21DB30" p-id="1487"></path>
</svg>